<mxfile host="65bd71144e">
    <diagram name="Page-1" id="e7e014a7-5840-1c2e-5031-d8a46d1fe8dd">
        <mxGraphModel dx="1675" dy="1416" grid="1" gridSize="10" guides="1" tooltips="1" connect="1" arrows="1" fold="1" page="1" pageScale="1" pageWidth="1169" pageHeight="826" background="none" math="0" shadow="0">
            <root>
                <mxCell id="0"/>
                <mxCell id="1" parent="0"/>
                <mxCell id="SHsS5pnPpOnRPU7mJlQy-60" value="" style="rounded=0;whiteSpace=wrap;html=1;" parent="1" vertex="1">
                    <mxGeometry x="200" y="60" width="850" height="820" as="geometry"/>
                </mxCell>
                <mxCell id="SHsS5pnPpOnRPU7mJlQy-55" style="edgeStyle=orthogonalEdgeStyle;rounded=0;orthogonalLoop=1;jettySize=auto;html=1;entryX=0;entryY=0.5;entryDx=0;entryDy=0;" parent="1" source="SHsS5pnPpOnRPU7mJlQy-43" target="SHsS5pnPpOnRPU7mJlQy-44" edge="1">
                    <mxGeometry relative="1" as="geometry">
                        <Array as="points">
                            <mxPoint x="170" y="160"/>
                            <mxPoint x="170" y="295"/>
                        </Array>
                    </mxGeometry>
                </mxCell>
                <mxCell id="SHsS5pnPpOnRPU7mJlQy-43" value="User" style="shape=umlActor;verticalLabelPosition=bottom;verticalAlign=top;html=1;" parent="1" vertex="1">
                    <mxGeometry x="100" y="130" width="30" height="60" as="geometry"/>
                </mxCell>
                <mxCell id="SHsS5pnPpOnRPU7mJlQy-86" style="edgeStyle=orthogonalEdgeStyle;rounded=0;orthogonalLoop=1;jettySize=auto;html=1;" parent="1" source="SHsS5pnPpOnRPU7mJlQy-44" target="SHsS5pnPpOnRPU7mJlQy-85" edge="1">
                    <mxGeometry relative="1" as="geometry"/>
                </mxCell>
                <mxCell id="SHsS5pnPpOnRPU7mJlQy-44" value="Start Tracking" style="ellipse;whiteSpace=wrap;html=1;" parent="1" vertex="1">
                    <mxGeometry x="240" y="260" width="140" height="70" as="geometry"/>
                </mxCell>
                <mxCell id="SHsS5pnPpOnRPU7mJlQy-49" value="&amp;lt;&amp;lt;extends&amp;gt;&amp;gt;" style="endArrow=open;endSize=12;dashed=1;html=1;rounded=0;" parent="1" source="SHsS5pnPpOnRPU7mJlQy-51" target="SHsS5pnPpOnRPU7mJlQy-62" edge="1">
                    <mxGeometry width="160" relative="1" as="geometry">
                        <mxPoint x="590" y="484" as="sourcePoint"/>
                        <mxPoint x="704.9566316380331" y="459.9986736723936" as="targetPoint"/>
                    </mxGeometry>
                </mxCell>
                <mxCell id="SHsS5pnPpOnRPU7mJlQy-50" value="Get latitude, longitude" style="ellipse;whiteSpace=wrap;html=1;" parent="1" vertex="1">
                    <mxGeometry x="490" y="210" width="140" height="70" as="geometry"/>
                </mxCell>
                <mxCell id="SHsS5pnPpOnRPU7mJlQy-51" value="Get altitude" style="ellipse;whiteSpace=wrap;html=1;" parent="1" vertex="1">
                    <mxGeometry x="480" y="310" width="150" height="70" as="geometry"/>
                </mxCell>
                <mxCell id="SHsS5pnPpOnRPU7mJlQy-54" value="&amp;lt;&amp;lt;include&amp;gt;&amp;gt;" style="endArrow=open;endSize=12;dashed=1;html=1;rounded=0;" parent="1" target="SHsS5pnPpOnRPU7mJlQy-51" edge="1">
                    <mxGeometry width="160" relative="1" as="geometry">
                        <mxPoint x="375" y="308" as="sourcePoint"/>
                        <mxPoint x="540" y="180" as="targetPoint"/>
                    </mxGeometry>
                </mxCell>
                <mxCell id="SHsS5pnPpOnRPU7mJlQy-61" value="Tracking app" style="text;html=1;align=center;verticalAlign=middle;resizable=0;points=[];autosize=1;strokeColor=none;fillColor=none;" parent="1" vertex="1">
                    <mxGeometry x="960" y="60" width="90" height="30" as="geometry"/>
                </mxCell>
                <mxCell id="SHsS5pnPpOnRPU7mJlQy-62" value="Using Altimeter" style="ellipse;whiteSpace=wrap;html=1;" parent="1" vertex="1">
                    <mxGeometry x="800" y="260" width="170" height="70" as="geometry"/>
                </mxCell>
                <mxCell id="SHsS5pnPpOnRPU7mJlQy-63" value="Using GPS" style="ellipse;whiteSpace=wrap;html=1;" parent="1" vertex="1">
                    <mxGeometry x="800" y="360" width="170" height="70" as="geometry"/>
                </mxCell>
                <mxCell id="SHsS5pnPpOnRPU7mJlQy-66" value="&amp;lt;&amp;lt;extends&amp;gt;&amp;gt;" style="endArrow=open;endSize=12;dashed=1;html=1;rounded=0;" parent="1" source="SHsS5pnPpOnRPU7mJlQy-51" target="SHsS5pnPpOnRPU7mJlQy-63" edge="1">
                    <mxGeometry width="160" relative="1" as="geometry">
                        <mxPoint x="652" y="351" as="sourcePoint"/>
                        <mxPoint x="823.6128191604712" y="429.6316132371762" as="targetPoint"/>
                    </mxGeometry>
                </mxCell>
                <mxCell id="SHsS5pnPpOnRPU7mJlQy-67" value="" style="endArrow=open;endSize=12;dashed=1;html=1;rounded=0;" parent="1" source="SHsS5pnPpOnRPU7mJlQy-44" target="SHsS5pnPpOnRPU7mJlQy-50" edge="1">
                    <mxGeometry x="-1" y="307" width="160" relative="1" as="geometry">
                        <mxPoint x="390" y="272" as="sourcePoint"/>
                        <mxPoint x="454" y="260" as="targetPoint"/>
                        <mxPoint x="-216" y="161" as="offset"/>
                    </mxGeometry>
                </mxCell>
                <mxCell id="SHsS5pnPpOnRPU7mJlQy-68" value="&amp;lt;&amp;lt;include&amp;gt;&amp;gt;" style="edgeLabel;html=1;align=center;verticalAlign=middle;resizable=0;points=[];" parent="SHsS5pnPpOnRPU7mJlQy-67" vertex="1" connectable="0">
                    <mxGeometry x="-0.0619" y="-2" relative="1" as="geometry">
                        <mxPoint as="offset"/>
                    </mxGeometry>
                </mxCell>
                <mxCell id="SHsS5pnPpOnRPU7mJlQy-81" style="edgeStyle=orthogonalEdgeStyle;rounded=0;orthogonalLoop=1;jettySize=auto;html=1;entryX=0;entryY=0.5;entryDx=0;entryDy=0;" parent="1" source="SHsS5pnPpOnRPU7mJlQy-43" target="SHsS5pnPpOnRPU7mJlQy-44" edge="1">
                    <mxGeometry relative="1" as="geometry">
                        <mxPoint x="130" y="160" as="sourcePoint"/>
                        <mxPoint x="240" y="295" as="targetPoint"/>
                        <Array as="points">
                            <mxPoint x="170" y="160"/>
                            <mxPoint x="170" y="295"/>
                        </Array>
                    </mxGeometry>
                </mxCell>
                <mxCell id="SHsS5pnPpOnRPU7mJlQy-92" style="edgeStyle=orthogonalEdgeStyle;rounded=0;orthogonalLoop=1;jettySize=auto;html=1;" parent="1" source="SHsS5pnPpOnRPU7mJlQy-85" target="SHsS5pnPpOnRPU7mJlQy-87" edge="1">
                    <mxGeometry relative="1" as="geometry"/>
                </mxCell>
                <mxCell id="SHsS5pnPpOnRPU7mJlQy-85" value="Save Data" style="ellipse;whiteSpace=wrap;html=1;" parent="1" vertex="1">
                    <mxGeometry x="240" y="437" width="140" height="70" as="geometry"/>
                </mxCell>
                <mxCell id="SHsS5pnPpOnRPU7mJlQy-94" style="edgeStyle=orthogonalEdgeStyle;rounded=0;orthogonalLoop=1;jettySize=auto;html=1;" parent="1" source="SHsS5pnPpOnRPU7mJlQy-87" target="SHsS5pnPpOnRPU7mJlQy-93" edge="1">
                    <mxGeometry relative="1" as="geometry"/>
                </mxCell>
                <mxCell id="SHsS5pnPpOnRPU7mJlQy-87" value="Improve altitude data" style="ellipse;whiteSpace=wrap;html=1;" parent="1" vertex="1">
                    <mxGeometry x="240" y="587" width="140" height="70" as="geometry"/>
                </mxCell>
                <mxCell id="SHsS5pnPpOnRPU7mJlQy-90" value="Using online databases" style="ellipse;whiteSpace=wrap;html=1;" parent="1" vertex="1">
                    <mxGeometry x="480" y="547" width="140" height="70" as="geometry"/>
                </mxCell>
                <mxCell id="SHsS5pnPpOnRPU7mJlQy-91" value="Using algorithms" style="ellipse;whiteSpace=wrap;html=1;" parent="1" vertex="1">
                    <mxGeometry x="480" y="657" width="140" height="70" as="geometry"/>
                </mxCell>
                <mxCell id="SHsS5pnPpOnRPU7mJlQy-93" value="Save improved data" style="ellipse;whiteSpace=wrap;html=1;" parent="1" vertex="1">
                    <mxGeometry x="240" y="713" width="140" height="70" as="geometry"/>
                </mxCell>
                <mxCell id="SHsS5pnPpOnRPU7mJlQy-95" value="&amp;lt;&amp;lt;extends&amp;gt;&amp;gt;" style="endArrow=open;endSize=12;dashed=1;html=1;rounded=0;exitX=0.944;exitY=0.293;exitDx=0;exitDy=0;exitPerimeter=0;entryX=0.027;entryY=0.3;entryDx=0;entryDy=0;entryPerimeter=0;" parent="1" source="SHsS5pnPpOnRPU7mJlQy-87" target="SHsS5pnPpOnRPU7mJlQy-90" edge="1">
                    <mxGeometry width="160" relative="1" as="geometry">
                        <mxPoint x="370.20000000000005" y="627.0000000000002" as="sourcePoint"/>
                        <mxPoint x="500" y="631.98" as="targetPoint"/>
                    </mxGeometry>
                </mxCell>
                <mxCell id="SHsS5pnPpOnRPU7mJlQy-97" value="&amp;lt;&amp;lt;extends&amp;gt;&amp;gt;" style="endArrow=open;endSize=12;dashed=1;html=1;rounded=0;exitX=0.93;exitY=0.745;exitDx=0;exitDy=0;exitPerimeter=0;entryX=0.07;entryY=0.238;entryDx=0;entryDy=0;entryPerimeter=0;" parent="1" source="SHsS5pnPpOnRPU7mJlQy-87" target="SHsS5pnPpOnRPU7mJlQy-91" edge="1">
                    <mxGeometry width="160" relative="1" as="geometry">
                        <mxPoint x="382" y="618" as="sourcePoint"/>
                        <mxPoint x="494" y="578" as="targetPoint"/>
                    </mxGeometry>
                </mxCell>
                <mxCell id="SHsS5pnPpOnRPU7mJlQy-98" value="" style="rounded=0;whiteSpace=wrap;html=1;" parent="1" vertex="1">
                    <mxGeometry x="200" y="60" width="850" height="820" as="geometry"/>
                </mxCell>
                <mxCell id="SHsS5pnPpOnRPU7mJlQy-99" style="edgeStyle=orthogonalEdgeStyle;rounded=0;orthogonalLoop=1;jettySize=auto;html=1;entryX=0;entryY=0.5;entryDx=0;entryDy=0;" parent="1" source="SHsS5pnPpOnRPU7mJlQy-100" target="SHsS5pnPpOnRPU7mJlQy-102" edge="1">
                    <mxGeometry relative="1" as="geometry">
                        <Array as="points">
                            <mxPoint x="170" y="160"/>
                            <mxPoint x="170" y="295"/>
                        </Array>
                    </mxGeometry>
                </mxCell>
                <mxCell id="SHsS5pnPpOnRPU7mJlQy-100" value="User" style="shape=umlActor;verticalLabelPosition=bottom;verticalAlign=top;html=1;" parent="1" vertex="1">
                    <mxGeometry x="100" y="130" width="30" height="60" as="geometry"/>
                </mxCell>
                <mxCell id="SHsS5pnPpOnRPU7mJlQy-101" style="edgeStyle=orthogonalEdgeStyle;rounded=0;orthogonalLoop=1;jettySize=auto;html=1;" parent="1" source="SHsS5pnPpOnRPU7mJlQy-102" target="SHsS5pnPpOnRPU7mJlQy-115" edge="1">
                    <mxGeometry relative="1" as="geometry"/>
                </mxCell>
                <mxCell id="SHsS5pnPpOnRPU7mJlQy-102" value="Start Tracking" style="ellipse;whiteSpace=wrap;html=1;" parent="1" vertex="1">
                    <mxGeometry x="240" y="260" width="140" height="70" as="geometry"/>
                </mxCell>
                <mxCell id="SHsS5pnPpOnRPU7mJlQy-103" value="&amp;lt;&amp;lt;extends&amp;gt;&amp;gt;" style="endArrow=open;endSize=12;dashed=1;html=1;rounded=0;" parent="1" source="SHsS5pnPpOnRPU7mJlQy-105" target="SHsS5pnPpOnRPU7mJlQy-108" edge="1">
                    <mxGeometry width="160" relative="1" as="geometry">
                        <mxPoint x="590" y="484" as="sourcePoint"/>
                        <mxPoint x="704.9566316380331" y="459.9986736723936" as="targetPoint"/>
                    </mxGeometry>
                </mxCell>
                <mxCell id="SHsS5pnPpOnRPU7mJlQy-104" value="Get latitude, longitude" style="ellipse;whiteSpace=wrap;html=1;" parent="1" vertex="1">
                    <mxGeometry x="490" y="210" width="140" height="70" as="geometry"/>
                </mxCell>
                <mxCell id="SHsS5pnPpOnRPU7mJlQy-105" value="Get altitude" style="ellipse;whiteSpace=wrap;html=1;" parent="1" vertex="1">
                    <mxGeometry x="480" y="310" width="150" height="70" as="geometry"/>
                </mxCell>
                <mxCell id="SHsS5pnPpOnRPU7mJlQy-106" value="&amp;lt;&amp;lt;include&amp;gt;&amp;gt;" style="endArrow=open;endSize=12;dashed=1;html=1;rounded=0;" parent="1" target="SHsS5pnPpOnRPU7mJlQy-105" edge="1">
                    <mxGeometry width="160" relative="1" as="geometry">
                        <mxPoint x="375" y="308" as="sourcePoint"/>
                        <mxPoint x="540" y="180" as="targetPoint"/>
                    </mxGeometry>
                </mxCell>
                <mxCell id="SHsS5pnPpOnRPU7mJlQy-107" value="Tracking app" style="text;html=1;align=center;verticalAlign=middle;resizable=0;points=[];autosize=1;strokeColor=none;fillColor=none;" parent="1" vertex="1">
                    <mxGeometry x="960" y="60" width="90" height="30" as="geometry"/>
                </mxCell>
                <mxCell id="SHsS5pnPpOnRPU7mJlQy-108" value="Using Altimeter" style="ellipse;whiteSpace=wrap;html=1;" parent="1" vertex="1">
                    <mxGeometry x="800" y="260" width="170" height="70" as="geometry"/>
                </mxCell>
                <mxCell id="SHsS5pnPpOnRPU7mJlQy-109" value="Using GPS" style="ellipse;whiteSpace=wrap;html=1;" parent="1" vertex="1">
                    <mxGeometry x="800" y="360" width="170" height="70" as="geometry"/>
                </mxCell>
                <mxCell id="SHsS5pnPpOnRPU7mJlQy-110" value="&amp;lt;&amp;lt;extends&amp;gt;&amp;gt;" style="endArrow=open;endSize=12;dashed=1;html=1;rounded=0;" parent="1" source="SHsS5pnPpOnRPU7mJlQy-105" target="SHsS5pnPpOnRPU7mJlQy-109" edge="1">
                    <mxGeometry width="160" relative="1" as="geometry">
                        <mxPoint x="652" y="351" as="sourcePoint"/>
                        <mxPoint x="823.6128191604712" y="429.6316132371762" as="targetPoint"/>
                    </mxGeometry>
                </mxCell>
                <mxCell id="SHsS5pnPpOnRPU7mJlQy-111" value="" style="endArrow=open;endSize=12;dashed=1;html=1;rounded=0;" parent="1" source="SHsS5pnPpOnRPU7mJlQy-102" target="SHsS5pnPpOnRPU7mJlQy-104" edge="1">
                    <mxGeometry x="-1" y="307" width="160" relative="1" as="geometry">
                        <mxPoint x="390" y="272" as="sourcePoint"/>
                        <mxPoint x="454" y="260" as="targetPoint"/>
                        <mxPoint x="-216" y="161" as="offset"/>
                    </mxGeometry>
                </mxCell>
                <mxCell id="SHsS5pnPpOnRPU7mJlQy-112" value="&amp;lt;&amp;lt;include&amp;gt;&amp;gt;" style="edgeLabel;html=1;align=center;verticalAlign=middle;resizable=0;points=[];" parent="SHsS5pnPpOnRPU7mJlQy-111" vertex="1" connectable="0">
                    <mxGeometry x="-0.0619" y="-2" relative="1" as="geometry">
                        <mxPoint as="offset"/>
                    </mxGeometry>
                </mxCell>
                <mxCell id="SHsS5pnPpOnRPU7mJlQy-113" style="edgeStyle=orthogonalEdgeStyle;rounded=0;orthogonalLoop=1;jettySize=auto;html=1;entryX=0;entryY=0.5;entryDx=0;entryDy=0;" parent="1" source="SHsS5pnPpOnRPU7mJlQy-100" target="SHsS5pnPpOnRPU7mJlQy-102" edge="1">
                    <mxGeometry relative="1" as="geometry">
                        <mxPoint x="130" y="160" as="sourcePoint"/>
                        <mxPoint x="240" y="295" as="targetPoint"/>
                        <Array as="points">
                            <mxPoint x="170" y="160"/>
                            <mxPoint x="170" y="295"/>
                        </Array>
                    </mxGeometry>
                </mxCell>
                <mxCell id="SHsS5pnPpOnRPU7mJlQy-114" style="edgeStyle=orthogonalEdgeStyle;rounded=0;orthogonalLoop=1;jettySize=auto;html=1;" parent="1" source="SHsS5pnPpOnRPU7mJlQy-115" target="SHsS5pnPpOnRPU7mJlQy-117" edge="1">
                    <mxGeometry relative="1" as="geometry"/>
                </mxCell>
                <mxCell id="SHsS5pnPpOnRPU7mJlQy-115" value="Save Data" style="ellipse;whiteSpace=wrap;html=1;" parent="1" vertex="1">
                    <mxGeometry x="240" y="437" width="140" height="70" as="geometry"/>
                </mxCell>
                <mxCell id="SHsS5pnPpOnRPU7mJlQy-116" style="edgeStyle=orthogonalEdgeStyle;rounded=0;orthogonalLoop=1;jettySize=auto;html=1;" parent="1" source="SHsS5pnPpOnRPU7mJlQy-117" target="SHsS5pnPpOnRPU7mJlQy-120" edge="1">
                    <mxGeometry relative="1" as="geometry"/>
                </mxCell>
                <mxCell id="SHsS5pnPpOnRPU7mJlQy-117" value="Improve altitude data" style="ellipse;whiteSpace=wrap;html=1;" parent="1" vertex="1">
                    <mxGeometry x="240" y="587" width="140" height="70" as="geometry"/>
                </mxCell>
                <mxCell id="SHsS5pnPpOnRPU7mJlQy-118" value="Using online databases" style="ellipse;whiteSpace=wrap;html=1;" parent="1" vertex="1">
                    <mxGeometry x="480" y="547" width="140" height="70" as="geometry"/>
                </mxCell>
                <mxCell id="SHsS5pnPpOnRPU7mJlQy-119" value="Using algorithms" style="ellipse;whiteSpace=wrap;html=1;" parent="1" vertex="1">
                    <mxGeometry x="480" y="657" width="140" height="70" as="geometry"/>
                </mxCell>
                <mxCell id="SHsS5pnPpOnRPU7mJlQy-120" value="Save improved data" style="ellipse;whiteSpace=wrap;html=1;" parent="1" vertex="1">
                    <mxGeometry x="240" y="713" width="140" height="70" as="geometry"/>
                </mxCell>
                <mxCell id="SHsS5pnPpOnRPU7mJlQy-121" value="&amp;lt;&amp;lt;extends&amp;gt;&amp;gt;" style="endArrow=open;endSize=12;dashed=1;html=1;rounded=0;exitX=0.944;exitY=0.293;exitDx=0;exitDy=0;exitPerimeter=0;entryX=0.027;entryY=0.3;entryDx=0;entryDy=0;entryPerimeter=0;" parent="1" source="SHsS5pnPpOnRPU7mJlQy-117" target="SHsS5pnPpOnRPU7mJlQy-118" edge="1">
                    <mxGeometry width="160" relative="1" as="geometry">
                        <mxPoint x="370.20000000000005" y="627.0000000000002" as="sourcePoint"/>
                        <mxPoint x="500" y="631.98" as="targetPoint"/>
                    </mxGeometry>
                </mxCell>
                <mxCell id="SHsS5pnPpOnRPU7mJlQy-122" value="&amp;lt;&amp;lt;extends&amp;gt;&amp;gt;" style="endArrow=open;endSize=12;dashed=1;html=1;rounded=0;exitX=0.93;exitY=0.745;exitDx=0;exitDy=0;exitPerimeter=0;entryX=0.07;entryY=0.238;entryDx=0;entryDy=0;entryPerimeter=0;" parent="1" source="SHsS5pnPpOnRPU7mJlQy-117" target="SHsS5pnPpOnRPU7mJlQy-119" edge="1">
                    <mxGeometry width="160" relative="1" as="geometry">
                        <mxPoint x="382" y="618" as="sourcePoint"/>
                        <mxPoint x="494" y="578" as="targetPoint"/>
                    </mxGeometry>
                </mxCell>
            </root>
        </mxGraphModel>
    </diagram>
</mxfile>